<?xml version="1.0" standalone="no"?>
<!DOCTYPE svg PUBLIC "-//W3C//DTD SVG 20010904//EN"
 "http://www.w3.org/2000/SVG/DTD/svg10.dtd">
<svg version="1.0" xmlns="http://www.w3.org/2000/svg"
 width="512.000000pt" height="512.000000pt" viewBox="0 0 512.000000 512.000000"
 preserveAspectRatio="xMidYMid meet">
<metadata>
Created for GeldGeregeld favicon
</metadata>
<g transform="translate(0.000000,512.000000) scale(0.100000,-0.100000)"
fill="#457fff" stroke="none">
<path d="M0 2560 l0 -2560 2560 0 2560 0 0 2560 0 2560 -2560 0 -2560 0 0
-2560z m4800 0 l0 -2240 -2240 0 -2240 0 0 2240 0 2240 2240 0 2240 0 0
-2240z"/>
<path d="M1920 3840 l0 -320 320 0 320 0 0 320 0 320 -320 0 -320 0 0 -320z"/>
</g>
</svg>

